<?xml version="1.0" encoding="utf-8"?>
<!-- Generator: Adobe Illustrator 15.0.0, SVG Export Plug-In . SVG Version: 6.00 Build 0)  -->
<!DOCTYPE svg PUBLIC "-//W3C//DTD SVG 1.1//EN" "http://www.w3.org/Graphics/SVG/1.1/DTD/svg11.dtd">
<svg version="1.1" id="Layer_1" xmlns="http://www.w3.org/2000/svg" xmlns:xlink="http://www.w3.org/1999/xlink" x="0px" y="0px"
	 width="300px" height="500px" viewBox="0 0 300 500" enable-background="new 0 0 300 500" xml:space="preserve">
<path d="M254.634,115.651c35.121,52.683,35.121,111.219,0,163.902C219.514,226.87,219.514,168.334,254.634,115.651z
	 M225.366,156.625c-29.269,23.415-29.269,52.683,0,81.951C254.634,209.308,254.634,180.04,225.366,156.625z M96.585,150.772
	L8.781,180.04c-11.706,17.562-11.706,29.268,0,46.83l87.804,23.415C79.023,221.017,79.023,185.896,96.585,150.772z M55.611,238.579
	l-5.856,81.95c11.706,11.707,29.268,17.562,40.977,5.854l5.853-76.098L55.611,238.579z M260.486,92.236L120,144.919
	c-17.562,35.121-17.562,76.098,0,111.22l140.486,46.829C313.17,244.432,313.17,150.772,260.486,92.236z"/>
</svg>
