<svg xmlns="http://www.w3.org/2000/svg" xmlns:xlink="http://www.w3.org/1999/xlink" xmlns:sketch="http://www.bohemiancoding.com/sketch/ns" viewBox="0 0 57 63.75" version="1.1" x="0px" y="0px"><title>183 - Megaphone (Solid)</title><desc>Created with Sketch.</desc><g stroke="none" stroke-width="1" fill="none" fill-rule="evenodd" sketch:type="MSPage"><g sketch:type="MSLayerGroup" fill="#000000"><path d="M6,20.267 L6,30.732 L49,44.366 L49,6.634 L6,20.267" sketch:type="MSShapeGroup"/><path d="M52,0 C49.243,0 47,2.243 47,5 L47,46 C47,48.757 49.243,51 52,51 C54.757,51 57,48.757 57,46 L57,5 C57,2.243 54.757,0 52,0" sketch:type="MSShapeGroup"/><path d="M4,16 C1.794,16 0,17.794 0,20 L0,31 C0,33.206 1.794,35 4,35 C6.206,35 8,33.206 8,31 L8,20 C8,17.794 6.206,16 4,16" sketch:type="MSShapeGroup"/><path d="M29.313,38.124 C29.622,38.314 29.878,38.582 30.048,38.916 C30.292,39.393 30.337,39.934 30.173,40.439 C29.846,41.45 28.68,42.056 27.654,41.726 L13.384,37.103 C12.879,36.939 12.466,36.586 12.223,36.108 C11.979,35.63 11.934,35.089 12.098,34.585 C12.346,33.818 13.061,33.287 13.861,33.225 L11.171,32.372 C10.735,32.809 10.396,33.35 10.195,33.967 C9.867,34.981 9.954,36.064 10.442,37.018 C10.928,37.972 11.755,38.678 12.768,39.005 L27.037,43.628 C27.435,43.757 27.848,43.823 28.264,43.823 C30.008,43.823 31.539,42.71 32.075,41.056 C32.291,40.391 32.309,39.699 32.172,39.031 L29.313,38.124" sketch:type="MSShapeGroup"/></g></g><text x="0" y="66" fill="#000000" font-size="5px" font-weight="bold" font-family="'Helvetica Neue', Helvetica, Arial-Unicode, Arial, Sans-serif">Created by Oliviu Stoian</text><text x="0" y="71" fill="#000000" font-size="5px" font-weight="bold" font-family="'Helvetica Neue', Helvetica, Arial-Unicode, Arial, Sans-serif">from the Noun Project</text></svg>