<svg xmlns="http://www.w3.org/2000/svg" xmlns:xlink="http://www.w3.org/1999/xlink" version="1.1" x="0px" y="0px" viewBox="0 0 100 125" enable-background="new 0 0 100 100" xml:space="preserve"><path d="M84.878,17.717c11.707,17.561,11.707,37.073,0,54.634C73.171,54.79,73.171,35.278,84.878,17.717z M75.122,31.375  c-9.756,7.805-9.756,17.561,0,27.317C84.878,48.936,84.878,39.18,75.122,31.375z M32.195,29.424L2.927,39.18  c-3.902,5.854-3.902,9.756,0,15.61l29.268,7.805C26.341,52.839,26.341,41.132,32.195,29.424z M18.537,58.693L16.585,86.01  c3.902,3.902,9.756,5.854,13.659,1.951l1.951-25.366L18.537,58.693z M86.829,9.912L40,27.473c-5.854,11.707-5.854,25.366,0,37.073  l46.829,15.61C104.39,60.644,104.39,29.424,86.829,9.912z"/><text x="0" y="115" fill="#000000" font-size="5px" font-weight="bold" font-family="'Helvetica Neue', Helvetica, Arial-Unicode, Arial, Sans-serif">Created by Thomas Helbig</text><text x="0" y="120" fill="#000000" font-size="5px" font-weight="bold" font-family="'Helvetica Neue', Helvetica, Arial-Unicode, Arial, Sans-serif">from the Noun Project</text></svg>