<?xml version="1.0" encoding="utf-8"?>
<!-- Generator: Adobe Illustrator 15.0.0, SVG Export Plug-In . SVG Version: 6.00 Build 0)  -->
<!DOCTYPE svg PUBLIC "-//W3C//DTD SVG 1.1//EN" "http://www.w3.org/Graphics/SVG/1.1/DTD/svg11.dtd">
<svg version="1.1" id="Layer_1" xmlns="http://www.w3.org/2000/svg" xmlns:xlink="http://www.w3.org/1999/xlink" x="0px" y="0px"
	 width="300px" height="500px" viewBox="0 0 300 500" enable-background="new 0 0 300 500" xml:space="preserve">
<path d="M279.462,258.436c-1.272-2.25-7.403-4.229-9.53-5.271c-7.93-3.864-63.498-27.354-81.037-35.427
	c-23.438-10.788-45.702-23.511-73.164-22.701c-35.424,1.044-58.896,26.367-75.243,44.181c-16.803,18.304-44.277,69.939,12.39,98.722
	c51.642,26.226,87.249-21.066,87.249-21.066s61.35,22.188,69.99,21.062c7.311-0.947,65.967-49.533,70.074-54.582
	C282.033,281.096,280.863,260.902,279.462,258.436z M157.404,215.56l20.976,9.654l-49.8,42.091l-20.976-9.658L157.404,215.56z
	 M202.593,329.338l-64.716-22.322c0,0-9.924,10.406-15.003,14.604c-3.498,2.889-10.158,7.458-18.717,11.007
	c-8.019,3.324-17.706,5.748-28.041,5.043c-7.812-0.892-15.921-3.433-23.667-7.713c-0.189-0.104-0.357-0.226-0.543-0.33
	c-24.387-13.797-28.851-37.59-18.51-56.28c2.235-4.035,6.654-8.082,10.401-10.683c4.401-3.054,9.549-4.776,14.826-5.517
	c12.567-1.771,18.288-0.769,29.886,3.869c8.181,3.273,15.966,7.348,23.958,11.034c14.067,6.478,28.134,12.942,42.217,19.38
	c12.836,5.868,42.11,18.822,47.412,21.114L202.593,329.338z M270.717,282.37l-52.875,41.331l-0.404-12.576l52.938-40.341
	L270.717,282.37z"/>
<path d="M70.704,106.627c13.494,24.438,26.988,48.876,40.485,73.317c2.16,3.915,8.148,0.417,5.985-3.501
	c-13.494-24.438-26.988-48.876-40.485-73.314C74.532,99.214,68.544,102.712,70.704,106.627L70.704,106.627z"/>
<path d="M164.13,81.646c-5.438,29.376-10.881,58.749-16.32,88.125c-0.81,4.371,5.874,6.237,6.687,1.845
	c5.438-29.376,10.881-58.749,16.319-88.125C171.627,79.12,164.939,77.254,164.13,81.646L164.13,81.646z"/>
<path d="M244.365,134.491c-21.354,17.985-42.708,35.97-64.062,53.952c-3.426,2.886,1.506,7.764,4.905,4.905
	c21.354-17.985,42.708-35.97,64.062-53.955C252.689,136.51,247.764,131.629,244.365,134.491L244.365,134.491z"/>
</svg>
