<svg xmlns="http://www.w3.org/2000/svg" xmlns:xlink="http://www.w3.org/1999/xlink" version="1.1" x="0px" y="0px" viewBox="0 0 100 125" enable-background="new 0 0 100 100" xml:space="preserve"><path d="M93.154,65.312c-0.424-0.75-2.468-1.41-3.177-1.757c-2.643-1.288-21.166-9.118-27.012-11.809  c-7.813-3.596-15.234-7.837-24.388-7.567c-11.808,0.348-19.632,8.789-25.081,14.727c-5.601,6.101-14.759,23.313,4.13,32.907  c17.214,8.742,29.083-7.022,29.083-7.022s20.45,7.396,23.33,7.021c2.437-0.316,21.989-16.511,23.358-18.194  C94.011,72.865,93.621,66.134,93.154,65.312z M52.468,51.02l6.992,3.218l-16.6,14.03l-6.992-3.219L52.468,51.02z M67.531,88.946  l-21.572-7.441c0,0-3.308,3.469-5.001,4.868c-1.166,0.963-3.386,2.486-6.239,3.669c-2.673,1.108-5.902,1.916-9.347,1.681  c-2.604-0.297-5.307-1.144-7.889-2.571c-0.063-0.035-0.119-0.075-0.181-0.11c-8.129-4.599-9.617-12.53-6.17-18.76  c0.745-1.345,2.218-2.694,3.467-3.561c1.467-1.018,3.183-1.592,4.942-1.839c4.189-0.59,6.096-0.256,9.962,1.29  c2.727,1.091,5.322,2.449,7.986,3.678c4.689,2.159,9.378,4.314,14.072,6.46c4.279,1.956,14.037,6.274,15.804,7.038L67.531,88.946z   M90.239,73.29L72.614,87.067l-0.135-4.192l17.646-13.447L90.239,73.29z"/><path d="M23.568,14.709c4.498,8.146,8.996,16.292,13.495,24.439c0.72,1.305,2.716,0.139,1.995-1.167  c-4.498-8.146-8.996-16.292-13.495-24.438C24.844,12.238,22.848,13.404,23.568,14.709L23.568,14.709z"/><path d="M54.71,6.382c-1.813,9.792-3.627,19.583-5.44,29.375c-0.27,1.457,1.958,2.079,2.229,0.615  c1.813-9.792,3.627-19.583,5.44-29.375C57.209,5.54,54.98,4.918,54.71,6.382L54.71,6.382z"/><path d="M81.455,23.997c-7.118,5.995-14.236,11.99-21.354,17.984c-1.142,0.962,0.502,2.588,1.635,1.635  c7.118-5.995,14.236-11.99,21.354-17.985C84.23,24.67,82.588,23.043,81.455,23.997L81.455,23.997z"/><text x="0" y="115" fill="#000000" font-size="5px" font-weight="bold" font-family="'Helvetica Neue', Helvetica, Arial-Unicode, Arial, Sans-serif">Created by Jennifer Cozzette</text><text x="0" y="120" fill="#000000" font-size="5px" font-weight="bold" font-family="'Helvetica Neue', Helvetica, Arial-Unicode, Arial, Sans-serif">from the Noun Project</text></svg>