<?xml version="1.0" encoding="utf-8"?>
<!-- Generator: Adobe Illustrator 15.0.0, SVG Export Plug-In . SVG Version: 6.00 Build 0)  -->
<!DOCTYPE svg PUBLIC "-//W3C//DTD SVG 1.1//EN" "http://www.w3.org/Graphics/SVG/1.1/DTD/svg11.dtd">
<svg version="1.1" id="Layer_1" xmlns="http://www.w3.org/2000/svg" xmlns:xlink="http://www.w3.org/1999/xlink" x="0px" y="0px"
	 width="300px" height="237px" viewBox="0 137.5 300 237" enable-background="new 0 137.5 300 237" xml:space="preserve">
<circle cx="56.607" cy="185.482" r="38.301"/>
<path d="M145.329,316.42c3.429,0,6.903-1.309,9.519-3.927l49.332-49.312c5.235-5.231,5.256-13.722,0.021-18.954
	c-5.235-5.238-13.719-5.238-18.957,0l-39.831,39.213c0,0-42.564-48.441-53.478-48.441s-63.099,0-63.099,0
	C16.2,235,3,246.571,3,259.21V355h99v-73.005l32.217,30.498C136.836,315.111,141.9,316.42,145.329,316.42z"/>
<polygon points="132,148 132,247.663 143.949,260.284 153,251.264 153,172 276,172 276,334 132,334 132,355 297,355 297,148 "/>
</svg>
