<?xml version="1.0" encoding="utf-8"?>
<!-- Generator: Adobe Illustrator 15.0.0, SVG Export Plug-In . SVG Version: 6.00 Build 0)  -->
<!DOCTYPE svg PUBLIC "-//W3C//DTD SVG 1.1//EN" "http://www.w3.org/Graphics/SVG/1.1/DTD/svg11.dtd">
<svg version="1.1" id="Layer_1" xmlns="http://www.w3.org/2000/svg" xmlns:xlink="http://www.w3.org/1999/xlink" x="0px" y="0px"
	 width="300px" height="192px" viewBox="0 114.5 300 192" enable-background="new 0 114.5 300 192" xml:space="preserve">
<g>
	<g>
		<g>
			<g>
				<g>
					<path d="M204,226.6c0.9,0.3,1.5,0.9,2.4,0.9c2.1,0,3.6-2.1,3.6-4.2c0-0.9-0.3-1.8-0.9-2.7c-1.8-2.4-6-3-8.699-3v-2.4
						c0-0.9-0.301-1.5-1.5-1.5s-1.5,0.6-1.5,1.5v2.4c-6.601,0.6-12,5.1-12,12.3c0,3.9,1.801,6.6,6.601,9c1.5,0.6,3.3,1.5,5.399,1.8
						v8.4c-3.601,0-6.301-2.4-8.399-2.4s-3.899,2.1-3.899,4.5c0,3.899,5.101,5.399,9,6c1.199,0.3,2.101,0.3,3,0.3v2.4
						c0,0.898,0.301,1.5,1.5,1.5s1.5-0.602,1.5-1.5v-2.4c5.101-0.3,12.301-4.2,12.301-12.6c0-1.8-0.301-3.3-0.9-4.5
						c-1.8-4.2-6.6-6-11.1-7.5v-2.7v-5.1C201.6,225.4,202.8,226,204,226.6z M235.5,207.7c6.6,8.1,10.2,18.3,10.2,29.4
						c0,26.1-21,47.1-47.101,47.1c-9.601,0-18.601-3-26.101-7.8c-9.899,8.398-18.3,15.6-20.101,17.1l-4.799,4.2l-4.5-4.2
						c-7.2-6-39.6-33.6-51.3-45c-15.9-15.6-53.4-52.5-30.3-90.9c9.6-16.2,27.3-25.8,47.4-25.8c15,0,29.1,5.7,39,15.3
						c9.9-9.9,24-15.3,39-15.3c20.101,0,37.5,9.6,47.399,25.8C244.8,175.3,242.7,192.7,235.5,207.7z M223.5,197.2
						c3.9-10.5,3.9-21.3-2.4-32.1c-6.898-11.4-19.8-18.3-34.5-18.3c-13.5,0-25.8,6-32.699,16.2l-6.299,9l-6-9
						c-6.9-10.2-19.2-16.2-32.7-16.2c-14.7,0-27.6,6.9-34.5,18.3c-15,24.9,4.5,49.5,27.9,72.3c9.6,9.6,33.9,30.6,45.3,40.2
						c3.6-3,8.4-7.199,13.799-12c-6.301-7.8-9.899-18-9.899-28.8c0-26.1,21-47.1,47.101-47.1C207.9,190,216.3,192.7,223.5,197.2z"/>
					<path d="M200.4,249.1v-7.5c1.8,0.6,3,1.5,3,3.9C203.4,247.3,202.2,249.1,200.4,249.1z"/>
					<path d="M194.1,228.7c0-1.8,1.2-3.3,3-3.6v6.6C195.6,231.7,194.1,230.5,194.1,228.7z"/>
				</g>
			</g>
		</g>
	</g>
</g>
</svg>
