<svg xmlns="http://www.w3.org/2000/svg" xmlns:xlink="http://www.w3.org/1999/xlink" version="1.1" x="0px" y="0px" viewBox="0 0 48 60" enable-background="new 0 0 48 48" xml:space="preserve"><path fill="#000000" d="M39.312,8.488H9.068v19.992h30.244V8.488z M37.774,26.942H10.606V10.025h27.168V26.942z"/><path fill="#000000" d="M7.4,32.58h33.067c1.624,0,2.946-1.322,2.946-2.946V7.332c0-1.624-1.322-2.946-2.946-2.946H7.913  c-1.624,0-2.946,1.322-2.946,2.946v22.815C4.967,31.489,6.058,32.58,7.4,32.58z M6.505,7.332c0-0.776,0.632-1.408,1.408-1.408  h32.555c0.776,0,1.408,0.632,1.408,1.408v22.303c0,0.776-0.632,1.408-1.408,1.408H7.4c-0.494,0-0.895-0.401-0.895-0.895V7.332z"/><path fill="#000000" d="M47.238,38.182l-3.751-3.752c-0.492-0.492-1.145-0.762-1.841-0.762H6.735c-0.687,0-1.358,0.278-1.84,0.762  l-3.751,3.751c-0.759,0.759-0.976,1.845-0.566,2.837c0.41,0.991,1.333,1.607,2.406,1.607h42.414c1.072,0,1.994-0.616,2.404-1.607  C48.213,40.027,47.997,38.941,47.238,38.182z M46.381,40.43c-0.17,0.411-0.538,0.658-0.983,0.658H2.983  c-0.447,0-0.814-0.246-0.984-0.658c-0.171-0.411-0.084-0.845,0.231-1.16l3.752-3.753c0.196-0.197,0.471-0.31,0.752-0.31h34.911  c0.285,0,0.553,0.11,0.754,0.311l3.751,3.752C46.466,39.585,46.552,40.018,46.381,40.43z"/><text x="0" y="63" fill="#000000" font-size="5px" font-weight="bold" font-family="'Helvetica Neue', Helvetica, Arial-Unicode, Arial, Sans-serif">Created by Ainsley Wagoner</text><text x="0" y="68" fill="#000000" font-size="5px" font-weight="bold" font-family="'Helvetica Neue', Helvetica, Arial-Unicode, Arial, Sans-serif">from the Noun Project</text></svg>