<?xml version="1.0" encoding="utf-8"?>
<!-- Generator: Adobe Illustrator 15.0.0, SVG Export Plug-In . SVG Version: 6.00 Build 0)  -->
<!DOCTYPE svg PUBLIC "-//W3C//DTD SVG 1.1//EN" "http://www.w3.org/Graphics/SVG/1.1/DTD/svg11.dtd">
<svg version="1.1" id="Layer_1" xmlns="http://www.w3.org/2000/svg" xmlns:xlink="http://www.w3.org/1999/xlink" x="0px" y="0px"
	 width="300px" height="500px" viewBox="0 0 300 500" enable-background="new 0 0 300 500" xml:space="preserve">
<path d="M245.7,115.55H56.675V240.5H245.7V115.55z M236.088,230.888h-169.8V125.156h169.8V230.888z"/>
<path d="M46.25,266.125h206.669c10.149,0,18.412-8.263,18.412-18.413V108.325c0-10.15-8.263-18.413-18.412-18.413H49.456
	c-10.15,0-18.412,8.262-18.412,18.413v142.594C31.044,259.307,37.862,266.125,46.25,266.125z M40.656,108.325
	c0-4.85,3.95-8.8,8.8-8.8h203.469c4.851,0,8.8,3.95,8.8,8.8v139.394c0,4.85-3.949,8.8-8.8,8.8H46.25
	c-3.087,0-5.594-2.506-5.594-5.594V108.325z"/>
<path d="M295.237,301.138l-23.443-23.45c-3.075-3.075-7.156-4.763-11.507-4.763H42.094c-4.294,0-8.487,1.737-11.5,4.763
	L7.15,301.131c-4.744,4.744-6.1,11.531-3.538,17.731c2.562,6.194,8.332,10.044,15.038,10.044h265.087
	c6.7,0,12.463-3.85,15.025-10.044C301.331,312.669,299.981,305.881,295.237,301.138z M289.881,315.188
	c-1.062,2.568-3.362,4.112-6.144,4.112H18.644c-2.793,0-5.087-1.537-6.15-4.112c-1.069-2.568-0.525-5.281,1.444-7.25l23.45-23.456
	c1.225-1.231,2.943-1.938,4.7-1.938h218.194c1.781,0,3.456,0.688,4.713,1.943l23.443,23.45
	C290.412,309.906,290.95,312.612,289.881,315.188z"/>
</svg>
