<?xml version="1.0" encoding="utf-8"?>
<!-- Generator: Adobe Illustrator 15.0.0, SVG Export Plug-In . SVG Version: 6.00 Build 0)  -->
<!DOCTYPE svg PUBLIC "-//W3C//DTD SVG 1.1//EN" "http://www.w3.org/Graphics/SVG/1.1/DTD/svg11.dtd">
<svg version="1.1" id="Layer_1" xmlns="http://www.w3.org/2000/svg" xmlns:xlink="http://www.w3.org/1999/xlink" x="0px" y="0px"
	 width="300px" height="279px" viewBox="0 69.5 300 279" enable-background="new 0 69.5 300 279" xml:space="preserve">
<path d="M245.7,115.55H56.675V240.5H245.7V115.55z M236.088,230.888h-169.8V125.156h169.8V230.888z"/>
<path d="M46.25,266.125h206.669c10.149,0,18.412-8.264,18.412-18.413V108.325c0-10.15-8.263-18.413-18.412-18.413H49.456
	c-10.15,0-18.412,8.262-18.412,18.413v142.594C31.044,259.307,37.862,266.125,46.25,266.125z M40.656,108.325
	c0-4.85,3.95-8.8,8.8-8.8h203.469c4.851,0,8.8,3.95,8.8,8.8v139.394c0,4.85-3.949,8.801-8.8,8.801H46.25
	c-3.087,0-5.594-2.506-5.594-5.595V108.325z"/>
<path d="M295.236,301.139l-23.442-23.451c-3.075-3.074-7.155-4.763-11.507-4.763H42.094c-4.294,0-8.487,1.737-11.5,4.763
	L7.15,301.131c-4.744,4.744-6.1,11.531-3.538,17.73c2.562,6.195,8.332,10.045,15.038,10.045h265.086
	c6.701,0,12.464-3.85,15.025-10.045C301.331,312.669,299.981,305.881,295.236,301.139z M289.881,315.188
	c-1.062,2.568-3.361,4.112-6.145,4.112H18.644c-2.793,0-5.087-1.536-6.15-4.112c-1.069-2.567-0.525-5.28,1.444-7.25l23.45-23.455
	c1.225-1.231,2.943-1.938,4.7-1.938h218.194c1.78,0,3.456,0.688,4.713,1.942l23.442,23.451
	C290.412,309.906,290.95,312.611,289.881,315.188z"/>
</svg>
