<?xml version="1.0" encoding="utf-8"?>
<!-- Generator: Adobe Illustrator 15.0.0, SVG Export Plug-In . SVG Version: 6.00 Build 0)  -->
<!DOCTYPE svg PUBLIC "-//W3C//DTD SVG 1.1//EN" "http://www.w3.org/Graphics/SVG/1.1/DTD/svg11.dtd">
<svg version="1.1" id="Layer_1" xmlns="http://www.w3.org/2000/svg" xmlns:xlink="http://www.w3.org/1999/xlink" x="0px" y="0px"
	 width="300px" height="366px" viewBox="0 67.5 300 366" enable-background="new 0 67.5 300 366" xml:space="preserve">
<path d="M165.239,172.718c2.971,2.931,2.971,7.738,0,10.708l-46.924,46.881c-2.931,2.971-7.768,2.971-10.679,0.087
	c-2.995-3.062-2.961-7.825-0.044-10.82l46.935-46.857C157.502,169.747,162.265,169.747,165.239,172.718z"/>
<path d="M187.533,310.231c2.971,2.975,7.758,2.975,10.705,0.048l46.904-46.928c2.994-2.972,2.975-7.779,0-10.754
	c-2.927-2.927-7.737-2.927-10.709,0l-46.9,46.904C184.559,302.497,184.559,307.305,187.533,310.231z"/>
<path d="M211.244,82.149H56.418v248.064L0,382.992l34.826,34.859l21.596-23.08v3.605H300V174.316L211.244,82.149z M215.4,123.414
	l41.808,43.406H215.4V123.414z M274.386,372.739H82.056v-5.397l83.137-88.864l17.269,17.265l48.17-48.213l-60.275-60.322
	l-48.204,48.257l17.178,17.182l-57.274,53.567V107.787h114.108v78.242h78.222V372.739z"/>
</svg>
