<?xml version="1.0" encoding="utf-8"?>
<!-- Generator: Adobe Illustrator 15.0.0, SVG Export Plug-In . SVG Version: 6.00 Build 0)  -->
<!DOCTYPE svg PUBLIC "-//W3C//DTD SVG 1.1//EN" "http://www.w3.org/Graphics/SVG/1.1/DTD/svg11.dtd">
<svg version="1.1" id="Layer_1" xmlns="http://www.w3.org/2000/svg" xmlns:xlink="http://www.w3.org/1999/xlink" x="0px" y="0px"
	 width="300px" height="500px" viewBox="0 0 300 500" enable-background="new 0 0 300 500" xml:space="preserve">
<g>
	<g>
		<g>
			<path d="M210.221,213.4c2.878,2.911,5.644,5.677,8.371,8.48c3.221,3.309,2.199,8.193-2.011,9.708
				c-2.414,0.867-4.388,0.038-6.149-1.626c-2.836-2.677-5.691-5.344-8.715-8.185c-2.938,2.958-5.686,5.733-8.441,8.503
				c-1.707,1.711-3.689,2.578-6.113,1.786c-4.152-1.354-5.395-6.15-2.371-9.492c2.071-2.292,4.298-4.443,6.534-6.576
				c0.656-0.628,2.034-1.871,1.936-1.969c-3.36-3.3-5.896-5.747-8.56-8.438c-2.555-2.578-2.639-6.16-0.285-8.471
				c2.344-2.297,5.615-2.325,8.273,0.258c2.803,2.724,5.376,5.686,8.245,8.756c3.529-3.53,6.333-6.478,9.295-9.258
				c3.591-3.366,8.503-1.931,9.755,2.78c0.604,2.273-0.436,4.05-1.955,5.606c-2.508,2.568-5.043,5.114-7.561,7.678
				C210.361,213.053,210.31,213.231,210.221,213.4z"/>
			<path d="M132.019,139.459c2.878,2.911,5.644,5.676,8.372,8.479c3.22,3.31,2.198,8.194-2.011,9.708
				c-2.414,0.867-4.388,0.038-6.15-1.626c-2.836-2.677-5.69-5.344-8.714-8.185c-2.939,2.958-5.686,5.733-8.442,8.503
				c-1.706,1.711-3.689,2.578-6.112,1.786c-4.153-1.354-5.396-6.15-2.372-9.492c2.072-2.292,4.299-4.444,6.535-6.577
				c0.656-0.628,2.034-1.87,1.936-1.969c-3.361-3.3-5.897-5.747-8.56-8.438c-2.555-2.578-2.639-6.159-0.286-8.47
				c2.344-2.297,5.616-2.325,8.273,0.258c2.803,2.724,5.377,5.686,8.246,8.756c3.53-3.53,6.333-6.478,9.295-9.258
				c3.59-3.366,8.503-1.931,9.754,2.78c0.605,2.273-0.436,4.05-1.955,5.606c-2.508,2.569-5.044,5.114-7.561,7.678
				C132.159,139.117,132.112,139.291,132.019,139.459z"/>
			<g>
				<path d="M210.862,144.344l-13.898-23.935c-1.396-2.409-4.88-2.409-6.276,0l-13.898,23.935c-0.975,1.683,0.516,3.717,2.409,3.3
					l8.55-2.934c-2.104,10.022-7.907,17.648-17.297,22.729c-4.134,2.227-8.873,4.064-14.887,5.808
					c-0.872,0.248-1.763,0.482-2.719,0.74l-0.239,0.07c-0.206,0.061-0.408,0.108-0.604,0.16c-0.249,0.061-0.474,0.126-0.723,0.197
					c-5.629,1.622-10.378,3.731-14.489,6.45c-5.025,3.309-8.878,7.228-11.564,11.728c-8.644,0.229-15.586,7.293-15.586,15.994
					c0,8.845,7.172,16.017,16.017,16.017s16.017-7.172,16.017-16.017c0-4.477-1.842-8.522-4.8-11.428
					c1.28-1.758,2.845-3.375,4.706-4.842c4.294-3.394,9.516-5.24,14.067-6.595c5.381-1.622,11.146-3.45,16.903-5.784
					c6.773-2.738,12.633-6.933,17.391-12.474c5.334-6.188,8.625-13.673,10.04-22.72l8.471,2.906
					C210.347,148.061,211.838,146.022,210.862,144.344z"/>
			</g>
		</g>
	</g>
	<path d="M273.197,158.341c-8.335-40.088-32.476-68.189-71.752-83.522c-23.466-9.141-49.439-10.542-76.978-4.153
		c-23.602,5.484-40.491,15.83-54.769,33.544c-14.208,17.667-21.225,37.27-20.859,58.322c0.08,3.188,0.328,6.384,0.746,9.516
		c-0.319,1.134-0.853,2.315-1.626,3.591c-0.324,0.516-0.638,1.078-0.9,1.594c-2.315,4.167-4.589,8.292-6.9,12.487l-0.722,1.317
		c-4.022,7.326-8.161,14.878-12.277,22.27c-2.676,4.833-3.239,10.148-1.631,15.989c0.881,2.977,2.306,5.7,4.383,8.264
		c2.892,3.422,6.787,5.925,11.878,7.631c-1.631,4.229-1.401,8.054,0.675,11.405c-0.065,0.342-0.122,0.698-0.173,1.073
		c-0.811,6.056,1.191,11.245,5.798,15.061c-3.183,12.117,1.312,25.383,11.147,32.526c2.986,2.129,6.216,3.947,9.741,5.466
		c1.439,0.591,3.229,1.327,5.119,1.927c11.569,3.769,23.344,5.227,34.725,6.633l2.391,0.3c15.506,2.049,22.411,15.647,29.227,31.87
		c1.739,4.135,5.756,6.807,10.242,6.807c1.753,0,3.506-0.422,5.062-1.219c4.237-2.17,17.812-9.164,31.083-16.008l18.516-9.544
		c10.936-5.681,22.251-11.555,33.638-17.409l1.199-0.619l1.242-1.167c2.171-2.175,4.453-6.005,3.028-11.915
		c-1.748-7.336-2.948-12.976-2.521-18.718c0.595-7.95,2.925-15.951,7.326-25.181c2.33-4.903,4.81-9.886,7.229-14.738
		c2.896-5.803,5.892-11.812,8.747-17.939C275.114,202.492,277.795,180.466,273.197,158.341z M224.17,299.669
		c-8.423,4.345-16.771,8.677-24.918,12.904l-16.543,8.541c-9.501,4.898-20.353,10.49-27.867,14.357
		c-6.506-13.992-17.835-32.24-41.137-35.315l-2.55-0.314c-10.941-1.359-21.272-2.644-31.134-5.854
		c-1.083-0.342-2.264-0.829-3.502-1.336c-2.072-0.896-4.045-2.006-5.854-3.295c-3.263-2.386-4.8-7.468-3.591-11.784l0.127-0.403
		c0.22-0.689,0.469-1.472,0.693-2.339c1.646-6.272-0.412-12.174-5.512-15.961c1.144-3.16,0.867-6.296-0.825-9.338
		c1.083-2.128,3.066-6.591,1.763-11.78c-2.044-8.043-9.436-9.698-11.869-10.247l-2.147-0.492c-2.812-0.764-3.952-1.542-4.359-1.988
		c-0.281-0.384-0.469-0.745-0.6-1.181c-0.202-0.759-0.136-0.881-0.061-1.017c4.388-7.875,8.794-15.91,13.078-23.728
		c2.288-4.153,4.575-8.307,6.919-12.521l0.384-0.698c2.409-3.957,3.896-7.88,4.542-11.996l0.234-1.509l-0.229-1.5
		c-0.445-2.883-0.708-5.841-0.778-8.78c-0.281-16.5,5.128-31.416,16.538-45.595c11.494-14.259,24.633-22.256,43.931-26.747
		c23.719-5.484,45.671-4.364,65.424,3.324c32.704,12.764,52.781,36.065,59.686,69.253c3.722,17.906,1.519,35.812-6.558,53.212
		c-2.709,5.822-5.658,11.729-8.513,17.457l-0.271,0.543c-2.362,4.744-4.805,9.643-7.116,14.522
		c-5.475,11.48-8.391,21.699-9.173,32.147C221.841,287.406,223.008,294.307,224.17,299.669z"/>
</g>
</svg>
