<svg xmlns="http://www.w3.org/2000/svg" xmlns:xlink="http://www.w3.org/1999/xlink" version="1.1" x="0px" y="0px" viewBox="0 0 64 80" enable-background="new 0 0 64 64" xml:space="preserve"><g><g><g><path fill="#000000" d="M44.847,32.192c0.614,0.621,1.204,1.211,1.786,1.809c0.687,0.706,0.469,1.748-0.429,2.071     c-0.515,0.185-0.936,0.008-1.312-0.347c-0.605-0.571-1.214-1.14-1.859-1.746c-0.627,0.631-1.213,1.223-1.801,1.814     c-0.364,0.365-0.787,0.55-1.304,0.381c-0.886-0.289-1.151-1.312-0.506-2.025c0.442-0.489,0.917-0.948,1.394-1.403     c0.14-0.134,0.434-0.399,0.413-0.42c-0.717-0.704-1.258-1.226-1.826-1.8c-0.545-0.55-0.563-1.314-0.061-1.807     c0.5-0.49,1.198-0.496,1.765,0.055c0.598,0.581,1.147,1.213,1.759,1.868c0.753-0.753,1.351-1.382,1.983-1.975     c0.766-0.718,1.814-0.412,2.081,0.593c0.129,0.485-0.093,0.864-0.417,1.196c-0.535,0.548-1.076,1.091-1.613,1.638     C44.877,32.118,44.866,32.156,44.847,32.192z"/><path fill="#000000" d="M28.164,16.418c0.614,0.621,1.204,1.211,1.786,1.809c0.687,0.706,0.469,1.748-0.429,2.071     c-0.515,0.185-0.936,0.008-1.312-0.347c-0.605-0.571-1.214-1.14-1.859-1.746c-0.627,0.631-1.213,1.223-1.801,1.814     c-0.364,0.365-0.787,0.55-1.304,0.381c-0.886-0.289-1.151-1.312-0.506-2.025c0.442-0.489,0.917-0.948,1.394-1.403     c0.14-0.134,0.434-0.399,0.413-0.42c-0.717-0.704-1.258-1.226-1.826-1.8c-0.545-0.55-0.563-1.314-0.061-1.807     c0.5-0.49,1.198-0.496,1.765,0.055c0.598,0.581,1.147,1.213,1.759,1.868c0.753-0.753,1.351-1.382,1.983-1.975     c0.766-0.718,1.814-0.412,2.081,0.593c0.129,0.485-0.093,0.864-0.417,1.196c-0.535,0.548-1.076,1.091-1.613,1.638     C28.194,16.345,28.184,16.382,28.164,16.418z"/><g><path fill="#000000" d="M44.984,17.46l-2.965-5.106c-0.298-0.514-1.041-0.514-1.339,0l-2.965,5.106      c-0.208,0.359,0.11,0.793,0.514,0.704l1.824-0.626c-0.449,2.138-1.687,3.765-3.69,4.849c-0.882,0.475-1.893,0.867-3.176,1.239      c-0.186,0.053-0.376,0.103-0.58,0.158l-0.051,0.015c-0.044,0.013-0.087,0.023-0.129,0.034c-0.053,0.013-0.101,0.027-0.154,0.042      c-1.201,0.346-2.214,0.796-3.091,1.376c-1.072,0.706-1.894,1.542-2.467,2.502c-1.844,0.049-3.325,1.556-3.325,3.412      c0,1.887,1.53,3.417,3.417,3.417s3.417-1.53,3.417-3.417c0-0.955-0.393-1.818-1.024-2.438c0.273-0.375,0.607-0.72,1.004-1.033      c0.916-0.724,2.03-1.118,3.001-1.407c1.148-0.346,2.378-0.736,3.606-1.234c1.445-0.584,2.695-1.479,3.71-2.661      c1.138-1.32,1.84-2.917,2.142-4.847l1.807,0.62C44.874,18.253,45.192,17.818,44.984,17.46z"/></g></g></g><path fill="#000000" d="M58.282,20.446c-1.778-8.552-6.928-14.547-15.307-17.818c-5.006-1.95-10.547-2.249-16.422-0.886   c-5.035,1.17-8.638,3.377-11.684,7.156c-3.031,3.769-4.528,7.951-4.45,12.442c0.017,0.68,0.07,1.362,0.159,2.03   c-0.068,0.242-0.182,0.494-0.347,0.766c-0.069,0.11-0.136,0.23-0.192,0.34c-0.494,0.889-0.979,1.769-1.472,2.664l-0.154,0.281   c-0.858,1.563-1.741,3.174-2.619,4.751c-0.571,1.031-0.691,2.165-0.348,3.411c0.188,0.635,0.492,1.216,0.935,1.763   c0.617,0.73,1.448,1.264,2.534,1.628c-0.348,0.902-0.299,1.718,0.144,2.433c-0.014,0.073-0.026,0.149-0.037,0.229   c-0.173,1.292,0.254,2.399,1.237,3.213c-0.679,2.585,0.28,5.415,2.378,6.939c0.637,0.454,1.326,0.842,2.078,1.166   c0.307,0.126,0.689,0.283,1.092,0.411c2.468,0.804,4.98,1.115,7.408,1.415l0.51,0.064c3.308,0.437,4.781,3.338,6.235,6.799   c0.371,0.882,1.228,1.452,2.185,1.452c0.374,0,0.748-0.09,1.08-0.26c0.904-0.463,3.8-1.955,6.631-3.415l3.95-2.036   c2.333-1.212,4.747-2.465,7.176-3.714l0.256-0.132l0.265-0.249c0.463-0.464,0.95-1.281,0.646-2.542   c-0.373-1.565-0.629-2.768-0.538-3.993c0.127-1.696,0.624-3.403,1.563-5.372c0.497-1.046,1.026-2.109,1.542-3.144   c0.618-1.238,1.257-2.52,1.866-3.827C58.691,29.865,59.263,25.166,58.282,20.446z M47.823,50.596   c-1.797,0.927-3.578,1.851-5.316,2.753l-3.529,1.822c-2.027,1.045-4.342,2.238-5.945,3.063c-1.388-2.985-3.805-6.878-8.776-7.534   l-0.544-0.067c-2.334-0.29-4.538-0.564-6.642-1.249c-0.231-0.073-0.483-0.177-0.747-0.285c-0.442-0.191-0.863-0.428-1.249-0.703   c-0.696-0.509-1.024-1.593-0.766-2.514l0.027-0.086c0.047-0.147,0.1-0.314,0.148-0.499c0.351-1.338-0.088-2.597-1.176-3.405   c0.244-0.674,0.185-1.343-0.176-1.992c0.231-0.454,0.654-1.406,0.376-2.513c-0.436-1.716-2.013-2.069-2.532-2.186l-0.458-0.105   c-0.6-0.163-0.843-0.329-0.93-0.424C9.528,34.59,9.488,34.513,9.46,34.42c-0.043-0.162-0.029-0.188-0.013-0.217   c0.936-1.68,1.876-3.394,2.79-5.062c0.488-0.886,0.976-1.772,1.476-2.671l0.082-0.149c0.514-0.844,0.831-1.681,0.969-2.559   l0.05-0.322l-0.049-0.32c-0.095-0.615-0.151-1.246-0.166-1.873c-0.06-3.52,1.094-6.702,3.528-9.727   c2.452-3.042,5.255-4.748,9.372-5.706c5.06-1.17,9.743-0.931,13.957,0.709c6.977,2.723,11.26,7.694,12.733,14.774   c0.794,3.82,0.324,7.64-1.399,11.352c-0.578,1.242-1.207,2.502-1.816,3.724l-0.058,0.116c-0.504,1.012-1.025,2.057-1.518,3.098   c-1.168,2.449-1.79,4.629-1.957,6.858C47.326,47.98,47.575,49.452,47.823,50.596z"/></g><text x="0" y="79" fill="#000000" font-size="5px" font-weight="bold" font-family="'Helvetica Neue', Helvetica, Arial-Unicode, Arial, Sans-serif">Created by Delwar Hossain</text><text x="0" y="84" fill="#000000" font-size="5px" font-weight="bold" font-family="'Helvetica Neue', Helvetica, Arial-Unicode, Arial, Sans-serif">from the Noun Project</text></svg>