<?xml version="1.0" encoding="utf-8"?>
<!-- Generator: Adobe Illustrator 15.0.0, SVG Export Plug-In . SVG Version: 6.00 Build 0)  -->
<!DOCTYPE svg PUBLIC "-//W3C//DTD SVG 1.1//EN" "http://www.w3.org/Graphics/SVG/1.1/DTD/svg11.dtd">
<svg version="1.1" id="Layer_1" xmlns="http://www.w3.org/2000/svg" xmlns:xlink="http://www.w3.org/1999/xlink" x="0px" y="0px"
	 width="300px" height="298px" viewBox="0 62.5 300 298" enable-background="new 0 62.5 300 298" xml:space="preserve">
<g>
	<path d="M102.978,188.977c-11.052,9.132-25.563,18.006-44.706,25.599l-4.416-11.139c17.142-6.798,30.171-14.652,40.131-22.686
		c-12.123-12.312-18.609-24.555-22.044-34.311h12.804c3.267,7.707,8.844,16.926,18.186,26.298
		c16.602-16.707,21.234-32.937,22.521-40.941H50.07v-12.648h45.594v-14.31h12.648v14.31h45.594v12.648h-16.338
		c-1.149,9.318-5.946,29.067-25.617,49.011c2.13,1.707,4.431,3.405,6.852,5.088c2.415-3.225,6.234-5.343,10.572-5.343h57.471
		c1.084-5.436,1.674-11.052,1.674-16.809c0-47.145-38.22-85.368-85.368-85.368c-47.145,0-85.368,38.223-85.368,85.368
		s38.223,85.365,85.368,85.365c4.425,0,8.736-0.438,12.981-1.083v-49.47C111.285,195.424,106.899,192.217,102.978,188.977z"/>
	<polygon points="203.703,230.278 187.572,274.678 219.837,274.678 203.973,230.278 	"/>
	<path d="M270.23,188.872H136.437c-6.618,0-11.982,5.364-11.982,11.982v133.794c0,6.615,5.364,11.98,11.982,11.98H270.23
		c6.615,0,11.979-5.365,11.979-11.98V200.851C282.21,194.236,276.846,188.872,270.23,188.872z M234.23,314.005l-10.39-28.665
		h-40.269L172.9,314.005h-12.93l37.067-95.187h13.998l37.194,95.187H234.23z"/>
</g>
</svg>
