<?xml version="1.0" encoding="utf-8"?>
<!-- Generator: Adobe Illustrator 15.0.0, SVG Export Plug-In . SVG Version: 6.00 Build 0)  -->
<!DOCTYPE svg PUBLIC "-//W3C//DTD SVG 1.1//EN" "http://www.w3.org/Graphics/SVG/1.1/DTD/svg11.dtd">
<svg version="1.1" id="Layer_1" xmlns="http://www.w3.org/2000/svg" xmlns:xlink="http://www.w3.org/1999/xlink" x="0px" y="0px"
	 width="300px" height="500px" viewBox="0 0 300 500" enable-background="new 0 0 300 500" xml:space="preserve">
<g>
	<g>
		<path d="M280.8,97H22.2c-3,0-5.7,2.7-5.7,5.4v216.9c0,3,2.7,5.4,5.7,5.4H281.1c3,0,5.7-2.7,5.7-5.4V102.4
			C286.5,99.7,283.8,97,280.8,97z M97.2,109.9c3.9,0,6.9,3,6.9,6.9c0,3.9-3,6.9-6.9,6.9c-3.9,0-6.9-3-6.9-6.9
			C90.3,112.9,93.3,109.9,97.2,109.9z M67.8,109.9c3.9,0,6.9,3,6.9,6.9c0,3.9-3,6.9-6.9,6.9c-3.6,0-6.9-3-6.9-6.9
			C60.9,112.9,64.2,109.9,67.8,109.9z M39,109.9c3.9,0,6.9,3,6.9,6.9c0,3.9-3,6.9-6.9,6.9s-6.9-3-6.9-6.9
			C32.1,112.9,34.8,109.9,39,109.9z M33,303.1V142.6c0-3,2.7-5.4,5.7-5.4H264.6c3,0,5.7,2.7,5.7,5.4v99.3c-0.3,0-0.3-0.3-0.6-0.3
			c-1.2-0.3-2.101-1.5-2.101-2.7v-11.4c0-1.5-1.199-3-3-3H245.4c-1.5,0-3,1.2-3,3v11.4c0,1.2-0.9,2.4-2.101,2.7
			c-2.7,0.6-4.8,2.1-7.2,3c-0.899,0.6-2.699,0.3-3.3-0.3l-7.5-7.2c-2.1-2.1-3.6-2.1-4.8-0.6L204,249.7c-1.2,1.2-1.2,3,0,4.2l7.8,7.8
			c0.9,0.899,0.9,2.399,0.601,3.3c-1.2,2.4-2.4,4.8-3,7.2c-0.301,1.2-1.5,2.399-3,2.399H195c-1.5,0-3,1.2-3,3v18.9c0,1.5,1.2,3,3,3
			h11.4c1.199,0,2.399,0.9,2.699,2.1c0.301,1.2,0.9,3,1.5,4.2c0.601,1.5-0.6,3.601-2.399,3.601H38.7C35.7,308.8,33,306.1,33,303.1z
			 M264.3,308.8h-27.6c-0.9,0-2.101-0.3-2.7-0.899c-6.3-6.301-9.9-15.301-8.7-25.2c1.5-12.601,12.3-23.101,24.9-25.2
			c7.2-0.9,14.1,0.3,19.8,3.9V303.1C270,306.1,267.3,308.8,264.3,308.8z"/>
	</g>
</g>
</svg>
