<svg xmlns="http://www.w3.org/2000/svg" xmlns:xlink="http://www.w3.org/1999/xlink" version="1.0" x="0px" y="0px" viewBox="0 0 100 125" enable-background="new 0 0 100 100" xml:space="preserve"><g><g><path fill="#000000" d="M93.6,11.5H7.4c-1,0-1.9,0.9-1.9,1.8v72.3c0,1,0.9,1.8,1.9,1.8h86.3c1,0,1.9-0.9,1.9-1.8V13.3    C95.5,12.4,94.6,11.5,93.6,11.5z M32.4,15.8c1.3,0,2.3,1,2.3,2.3s-1,2.3-2.3,2.3c-1.3,0-2.3-1-2.3-2.3S31.1,15.8,32.4,15.8z     M22.6,15.8c1.3,0,2.3,1,2.3,2.3s-1,2.3-2.3,2.3c-1.2,0-2.3-1-2.3-2.3S21.4,15.8,22.6,15.8z M13,15.8c1.3,0,2.3,1,2.3,2.3    s-1,2.3-2.3,2.3s-2.3-1-2.3-2.3S11.6,15.8,13,15.8z M11,80.2V26.7c0-1,0.9-1.8,1.9-1.8h75.3c1,0,1.9,0.9,1.9,1.8v33.1    c-0.1,0-0.1-0.1-0.2-0.1c-0.4-0.1-0.7-0.5-0.7-0.9V55c0-0.5-0.4-1-1-1h-6.4c-0.5,0-1,0.4-1,1v3.8c0,0.4-0.3,0.8-0.7,0.9    c-0.9,0.2-1.6,0.7-2.4,1c-0.3,0.2-0.9,0.1-1.1-0.1l-2.5-2.4c-0.7-0.7-1.2-0.7-1.6-0.2L68,62.4c-0.4,0.4-0.4,1,0,1.4l2.6,2.6    c0.3,0.3,0.3,0.8,0.2,1.1c-0.4,0.8-0.8,1.6-1,2.4c-0.1,0.4-0.5,0.8-1,0.8H65c-0.5,0-1,0.4-1,1v6.3c0,0.5,0.4,1,1,1h3.8    c0.4,0,0.8,0.3,0.9,0.7c0.1,0.4,0.3,1,0.5,1.4c0.2,0.5-0.2,1.2-0.8,1.2H12.9C11.9,82.1,11,81.2,11,80.2z M88.1,82.1h-9.2    c-0.3,0-0.7-0.1-0.9-0.3c-2.1-2.1-3.3-5.1-2.9-8.4c0.5-4.2,4.1-7.7,8.3-8.4c2.4-0.3,4.7,0.1,6.6,1.3v13.9    C90,81.2,89.1,82.1,88.1,82.1z"/></g></g><text x="0" y="115" fill="#000000" font-size="5px" font-weight="bold" font-family="'Helvetica Neue', Helvetica, Arial-Unicode, Arial, Sans-serif">Created by Roselin Christina.S</text><text x="0" y="120" fill="#000000" font-size="5px" font-weight="bold" font-family="'Helvetica Neue', Helvetica, Arial-Unicode, Arial, Sans-serif">from the Noun Project</text></svg>