<svg xmlns="http://www.w3.org/2000/svg" xmlns:xlink="http://www.w3.org/1999/xlink" version="1.1" x="0px" y="0px" viewBox="0 0 48 60" enable-background="new 0 0 48 48" xml:space="preserve"><g><g><rect x="22.219" y="15.493" transform="matrix(-0.7072 -0.707 0.707 -0.7072 24.1684 57.5237)" fill="#000000" width="3.554" height="16.528"/><path fill="#000000" d="M4.996,41.676L3.18,45.201l3.525-1.815l11.834-4.293L39.331,18.3l-9.879-9.878L8.661,29.214L4.996,41.676z     M8.023,41.257L6.907,40.14l2.395-8.141l6.453,6.453L8.023,41.257z M28.582,14.143l5.027,5.028L19.409,33.371l-5.026-5.027    L28.582,14.143z"/></g><rect x="30.137" y="6.125" transform="matrix(-0.7071 -0.7071 0.7071 -0.7071 57.7921 43.5933)" fill="#000000" width="15.576" height="7.405"/></g><text x="0" y="63" fill="#000000" font-size="5px" font-weight="bold" font-family="'Helvetica Neue', Helvetica, Arial-Unicode, Arial, Sans-serif">Created by Yash No</text><text x="0" y="68" fill="#000000" font-size="5px" font-weight="bold" font-family="'Helvetica Neue', Helvetica, Arial-Unicode, Arial, Sans-serif">from the Noun Project</text></svg>