<?xml version="1.0" encoding="utf-8"?>
<!-- Generator: Adobe Illustrator 15.0.0, SVG Export Plug-In . SVG Version: 6.00 Build 0)  -->
<!DOCTYPE svg PUBLIC "-//W3C//DTD SVG 1.1//EN" "http://www.w3.org/Graphics/SVG/1.1/DTD/svg11.dtd">
<svg version="1.1" id="Layer_1" xmlns="http://www.w3.org/2000/svg" xmlns:xlink="http://www.w3.org/1999/xlink" x="0px" y="0px"
	 width="300px" height="304px" viewBox="0 59.5 300 304" enable-background="new 0 59.5 300 304" xml:space="preserve">
<g>
	<g>
		
			<rect x="138.858" y="159.333" transform="matrix(-0.7072 -0.707 0.707 -0.7072 106.8533 466.2152)" width="22.211" height="103.298"/>
		<path d="M31.225,322.975l-11.35,22.031l22.031-11.344l73.962-26.831l129.95-129.956l-61.743-61.737L54.131,245.087L31.225,322.975
			z M50.144,320.355l-6.975-6.98l14.969-50.881l40.331,40.331L50.144,320.355z M178.639,150.894l31.418,31.425l-88.75,88.75
			L89.894,239.65L178.639,150.894z"/>
	</g>
	
		<rect x="188.352" y="100.779" transform="matrix(-0.7071 -0.7071 0.7071 -0.7071 317.0055 379.1452)" width="97.348" height="46.281"/>
</g>
</svg>
