<?xml version="1.0" encoding="utf-8"?>
<!-- Generator: Adobe Illustrator 15.0.0, SVG Export Plug-In . SVG Version: 6.00 Build 0)  -->
<!DOCTYPE svg PUBLIC "-//W3C//DTD SVG 1.1//EN" "http://www.w3.org/Graphics/SVG/1.1/DTD/svg11.dtd">
<svg version="1.1" id="Layer_1" xmlns="http://www.w3.org/2000/svg" xmlns:xlink="http://www.w3.org/1999/xlink" x="0px" y="0px"
	 width="300px" height="500px" viewBox="0 0 300 500" enable-background="new 0 0 300 500" xml:space="preserve">
<g>
	<g>
		
			<rect x="138.861" y="159.335" transform="matrix(0.7072 0.707 -0.707 0.7072 193.0732 -44.2531)" width="22.212" height="103.299"/>
		<path d="M31.225,322.975l-11.35,22.031l22.031-11.344l73.962-26.831l129.95-129.956l-61.743-61.737L54.131,245.087L31.225,322.975
			z M50.144,320.356l-6.975-6.981l14.969-50.881l40.331,40.331L50.144,320.356z M178.638,150.894l31.419,31.425l-88.75,88.75
			L89.894,239.65L178.638,150.894z"/>
	</g>
	
		<rect x="188.352" y="100.781" transform="matrix(0.7071 0.7071 -0.7071 0.7071 157.0496 -131.3074)" width="97.349" height="46.281"/>
</g>
</svg>
